<svg xmlns="http://www.w3.org/2000/svg" xmlns:xlink="http://www.w3.org/1999/xlink" id="Layer_2" data-name="Layer 2" viewBox="0 0 195.79 247.28"><defs><style>      .cls-1 {        fill: url(#linear-gradient-2);      }      .cls-2 {        font-family: Sora-Bold, Sora;        font-size: 213.68px;      }      .cls-2, .cls-3, .cls-4, .cls-5 {        font-weight: 700;      }      .cls-6 {        fill: url(#linear-gradient-6);      }      .cls-7 {        letter-spacing: 0em;      }      .cls-8 {        fill: #fbb51d;      }      .cls-9 {        fill: url(#linear-gradient-10);      }      .cls-10 {        fill: none;        stroke: url(#linear-gradient);        stroke-miterlimit: 10;        stroke-width: 3px;      }      .cls-3 {        font-size: 16.63px;      }      .cls-3, .cls-4 {        fill: #fff;      }      .cls-3, .cls-4, .cls-5 {        font-family: Sora-ExtraBold, Sora;      }      .cls-11 {        fill: url(#linear-gradient-5);      }      .cls-4 {        font-size: 39.55px;      }      .cls-12 {        fill: url(#linear-gradient-7);      }      .cls-13 {        fill: url(#linear-gradient-9);      }      .cls-14 {        fill: url(#linear-gradient-3);      }      .cls-5 {        fill: #231f20;        font-size: 21.44px;      }      .cls-15 {        letter-spacing: 0em;      }      .cls-16 {        fill: url(#linear-gradient-4);      }      .cls-17 {        fill: url(#linear-gradient-8);      }    </style><linearGradient id="linear-gradient" x1="97.89" y1="247.01" x2="97.89" y2="43.26" gradientUnits="userSpaceOnUse"><stop offset="0" stop-color="#fff" stop-opacity="0"></stop><stop offset="1" stop-color="#e92c4d"></stop></linearGradient><linearGradient id="linear-gradient-2" x1="44.56" y1="106.84" x2="153.37" y2="106.84" gradientUnits="userSpaceOnUse"><stop offset=".06" stop-color="#f5877d"></stop><stop offset="1" stop-color="#b7335f"></stop></linearGradient><linearGradient id="linear-gradient-3" x1="50.43" y1="233.34" x2="173.43" y2="233.34" xlink:href="#linear-gradient-2"></linearGradient><linearGradient id="linear-gradient-4" x1="50.43" y1="233.34" x2="173.43" y2="233.34" xlink:href="#linear-gradient-2"></linearGradient><linearGradient id="linear-gradient-5" x1="50.43" y1="233.34" x2="173.43" y2="233.34" xlink:href="#linear-gradient-2"></linearGradient><linearGradient id="linear-gradient-6" x1="50.43" y1="233.34" x2="173.43" y2="233.34" xlink:href="#linear-gradient-2"></linearGradient><linearGradient id="linear-gradient-7" x1="50.43" y1="233.34" x2="173.43" y2="233.34" xlink:href="#linear-gradient-2"></linearGradient><linearGradient id="linear-gradient-8" x1="50.43" y1="233.34" x2="173.43" y2="233.34" xlink:href="#linear-gradient-2"></linearGradient><linearGradient id="linear-gradient-9" x1="50.43" y1="233.34" x2="173.43" y2="233.34" xlink:href="#linear-gradient-2"></linearGradient><linearGradient id="linear-gradient-10" x1="50.43" y1="233.34" x2="173.43" y2="233.34" xlink:href="#linear-gradient-2"></linearGradient></defs><g id="Layer_1-2" data-name="Layer 1"><g><rect class="cls-10" x="1.5" y="44.76" width="192.79" height="200.76" rx="12" ry="12"></rect><g><text class="cls-2" transform="translate(38.07 184.83) scale(.92 1)"><tspan x="0" y="0">7</tspan></text><path class="cls-1" d="M66.21,184.83L116.58,60.68l-2.16-3.21H44.56V28.84h108.81v22.22l-52.93,133.76h-34.24Zm-21.64-102.14V28.84h26.17v53.85h-26.17Z"></path></g><text class="cls-4" transform="translate(58.34 220.37)"><tspan x="0" y="0">DI</tspan><tspan class="cls-7" x="44.14" y="0">A</tspan><tspan x="75.23" y="0">S</tspan></text><g><text class="cls-5" transform="translate(49.62 241.19)"><tspan class="cls-15" x="0" y="0">G</tspan><tspan x="17.67" y="0">ARANTIA</tspan></text><g><path class="cls-14" d="M58.77,241.62c-1.47,0-2.74-.25-3.79-.74-1.06-.49-1.92-1.14-2.59-1.94s-1.17-1.67-1.48-2.62c-.31-.94-.47-1.87-.47-2.77v-.47c0-.97,.16-1.93,.49-2.88,.33-.95,.83-1.81,1.49-2.58,.66-.77,1.5-1.39,2.5-1.85,1-.46,2.17-.7,3.52-.7,1.44,0,2.72,.26,3.83,.79,1.11,.53,2,1.26,2.67,2.2,.67,.94,1.06,2.02,1.18,3.25h-3.99c-.09-.47-.29-.9-.62-1.28-.33-.38-.75-.68-1.28-.9s-1.12-.33-1.79-.33-1.21,.11-1.7,.33c-.49,.22-.91,.54-1.24,.94-.34,.41-.59,.89-.76,1.45s-.26,1.17-.26,1.82,.09,1.27,.28,1.83c.19,.56,.46,1.06,.81,1.48s.81,.75,1.35,.98c.54,.23,1.16,.34,1.87,.34,.89,0,1.65-.19,2.29-.56,.64-.37,1.09-.86,1.35-1.48l-.3,2.36v-3.41h3.64v3.22c-.66,1.13-1.59,2-2.8,2.6-1.21,.61-2.6,.91-4.19,.91Zm-.43-5.96v-2.79h8.7v2.79h-8.7Z"></path><path class="cls-16" d="M67.45,241.19l5.02-15.65h6.39l5.19,15.65h-4.12l-4.03-12.86,1.14,.43h-2.83l1.16-.43-3.92,12.86h-3.99Zm4.1-3.62l1.2-3.26h5.94l1.2,3.26h-8.34Z"></path><path class="cls-11" d="M85.81,241.19v-15.78h3.99v15.78h-3.99Zm2.98-4.8v-3.07h3.75c.47,0,.88-.09,1.22-.28,.34-.19,.61-.45,.8-.79,.19-.34,.29-.74,.29-1.2s-.1-.88-.29-1.22c-.19-.34-.46-.61-.8-.79-.34-.19-.75-.28-1.22-.28h-3.75v-3.34h3.52c1.36,0,2.53,.2,3.52,.61s1.74,1.01,2.27,1.8c.53,.79,.79,1.78,.79,2.95v.34c0,1.17-.27,2.15-.8,2.93-.54,.78-1.29,1.37-2.27,1.76-.98,.39-2.15,.59-3.51,.59h-3.52Zm6.45,4.8l-4.4-6.65h4.33l4.65,6.65h-4.59Z"></path><path class="cls-6" d="M100.26,241.19l5.02-15.65h6.39l5.19,15.65h-4.12l-4.03-12.86,1.14,.43h-2.83l1.16-.43-3.92,12.86h-3.99Zm4.1-3.62l1.2-3.26h5.94l1.2,3.26h-8.34Z"></path><path class="cls-12" d="M118.61,241.19v-15.65h6.54l5.21,12.48h.75l-.43,.39v-12.86h3.73v15.65h-6.58l-5.21-12.48h-.75l.43-.39v12.86h-3.69Z"></path><path class="cls-17" d="M136.42,229.01v-3.47h12.56v3.47h-12.56Zm4.29,12.18v-12.61h3.99v12.61h-3.99Z"></path><path class="cls-13" d="M151.04,241.19v-15.65h3.99v15.65h-3.99Z"></path><path class="cls-9" d="M156.83,241.19l5.02-15.65h6.39l5.19,15.65h-4.12l-4.03-12.86,1.14,.43h-2.83l1.16-.43-3.92,12.86h-3.99Zm4.1-3.62l1.2-3.26h5.94l1.2,3.26h-8.34Z"></path></g></g><text class="cls-3" transform="translate(21.83 239.87)"><tspan x="0" y="0">DE</tspan></text><polygon class="cls-8" points="95.04 81.2 103.36 98.07 121.98 100.78 108.51 113.91 111.69 132.45 95.04 123.7 78.38 132.45 81.56 113.91 68.09 100.78 86.71 98.07 95.04 81.2"></polygon><polygon class="cls-8" points="130.07 104.57 134.6 113.74 144.73 115.22 137.4 122.36 139.13 132.45 130.07 127.69 121.01 132.45 122.74 122.36 115.41 115.22 125.54 113.74 130.07 104.57"></polygon><polygon class="cls-8" points="60.85 104.57 65.38 113.74 75.51 115.22 68.18 122.36 69.91 132.45 60.85 127.69 51.79 132.45 53.52 122.36 46.19 115.22 56.32 113.74 60.85 104.57"></polygon><polygon class="cls-8" points="29.96 104.57 34.49 113.74 44.62 115.22 37.29 122.36 39.02 132.45 29.96 127.69 20.9 132.45 22.63 122.36 15.3 115.22 25.43 113.74 29.96 104.57"></polygon><polygon class="cls-8" points="159.66 104.57 164.19 113.74 174.32 115.22 166.99 122.36 168.72 132.45 159.66 127.69 150.6 132.45 152.33 122.36 145 115.22 155.13 113.74 159.66 104.57"></polygon></g></g></svg>