<svg xmlns="http://www.w3.org/2000/svg" xmlns:xlink="http://www.w3.org/1999/xlink" id="Layer_1" x="0px" y="0px" viewBox="0 0 861.2 633" style="enable-background:new 0 0 861.2 633;" xml:space="preserve"><style type="text/css">			.st0{opacity:0.319;fill:none;stroke:url(#Path_00000155857194476158324330000015743195781947506596_);stroke-width:2;stroke-linecap:square;enable-background:new    ;}	.st1{fill:#213447;}	.st2{fill:#15202D;}	.st3{fill:#203244;}	.st4{filter:url(#filter-4);}	.st5{fill-rule:evenodd;clip-rule:evenodd;}			.st6{fill-rule:evenodd;clip-rule:evenodd;fill:#0F1A24;stroke:url(#path-3_00000160886372218027206110000010959972919405290170_);stroke-width:3;}			.st7{opacity:0.319;fill:none;stroke:url(#Line_00000137852908053859329000000002260264965875263880_);stroke-width:4;stroke-linecap:square;enable-background:new    ;}	.st8{fill:#404B57;}	.st9{filter:url(#filter-7);}	.st10{fill-rule:evenodd;clip-rule:evenodd;fill:#1B2430;}	.st11{opacity:0.2;fill:#73798F;enable-background:new    ;}	.st12{opacity:0.4;fill:#73798F;enable-background:new    ;}	.st13{opacity:0.6;fill:#73798F;enable-background:new    ;}	.st14{opacity:0.8;fill:#73798F;enable-background:new    ;}	.st15{fill:#73798F;}	.st16{opacity:0.7;fill:none;stroke:#2F3845;stroke-width:2;enable-background:new    ;}	.st17{fill-rule:evenodd;clip-rule:evenodd;fill:#486075;}	.st18{filter:url(#filter-9);}	.st19{fill-rule:evenodd;clip-rule:evenodd;fill:#04D47C;}	.st20{fill:#FFFFFF;}	.st21{opacity:0.95;}	.st22{filter:url(#filter-11);}	.st23{fill-rule:evenodd;clip-rule:evenodd;fill:#2C3442;}	.st24{opacity:0.65;}	.st25{filter:url(#filter-13);}	.st26{fill-rule:evenodd;clip-rule:evenodd;fill:#2B3341;}	.st27{opacity:0.9;}	.st28{filter:url(#filter-15);}	.st29{filter:url(#filter-17);}	.st30{fill-rule:evenodd;clip-rule:evenodd;fill:#08BA71;}	.st31{opacity:0.85;}	.st32{filter:url(#filter-19);}	.st33{filter:url(#filter-21);}	.st34{fill-rule:evenodd;clip-rule:evenodd;fill:#0F1A24;stroke:#343D4B;stroke-width:3;}	.st35{fill:#FFD764;}	.st36{fill:#9B7217;}	.st37{fill:#FED663;}	.st38{fill:#FFD859;}	.st39{filter:url(#filter-23);}	.st40{filter:url(#filter-25);}	.st41{fill-rule:evenodd;clip-rule:evenodd;fill:#15202D;}	.st42{fill:none;stroke:url(#Line_00000062888770379987384590000013730504428714082473_);stroke-width:6;stroke-linecap:square;}	.st43{fill:none;stroke:url(#Line_00000093152813069218710730000006995332082183255480_);stroke-width:4;stroke-linecap:square;}	.st44{opacity:0.1323;}	.st45{fill-rule:evenodd;clip-rule:evenodd;fill:url(#Rectangle_00000028292801655596842480000001267808941665236916_);}	.st46{filter:url(#filter-31);}	.st47{fill-rule:evenodd;clip-rule:evenodd;fill:url(#path-30_00000074402611695760429570000013628615434611065512_);}	.st48{fill:url(#Oval_00000145018789752606535000000007779609328450742955_);}	.st49{fill:url(#Oval_00000068641781603001889860000005662683820247625601_);}	.st50{fill:none;}	.st51{fill-rule:evenodd;clip-rule:evenodd;fill:#F12C4C;}	.st52{fill:#1C2632;stroke:#0F1923;stroke-width:2;}	.st53{fill:none;stroke:#1C2632;stroke-width:3;}	.st54{fill:#1C2632;}	.st55{fill:#545B6E;}	.st56{fill:#EA133C;}	.st57{fill:#262F3C;}	.st58{fill:none;stroke:#FFFFFF;stroke-width:4;stroke-miterlimit:10;}	.st59{fill:#F12C4C;}</style><filter filterUnits="objectBoundingBox" height="201.0%" id="filter-9" width="171.7%" x="-35.9%" y="-40.4%">			<feGaussianBlur stdDeviation="5"></feGaussianBlur>			</filter><filter filterUnits="objectBoundingBox" height="115.6%" id="filter-7" width="115.3%" x="-7.6%" y="-6.6%">		<feGaussianBlur stdDeviation="10"></feGaussianBlur>			</filter><filter filterUnits="objectBoundingBox" height="115.5%" id="filter-4" width="116.0%" x="-8.0%" y="-6.6%">			<feGaussianBlur stdDeviation="10"></feGaussianBlur>				</filter><filter filterUnits="objectBoundingBox" height="253.1%" id="filter-31" width="160.1%" x="-30.1%" y="-64.1%">			<feGaussianBlur stdDeviation="12"></feGaussianBlur>			</filter><filter filterUnits="objectBoundingBox" height="202.6%" id="filter-25" width="202.6%" x="-51.3%" y="-41.0%">			<feGaussianBlur stdDeviation="5"></feGaussianBlur>			</filter><filter filterUnits="objectBoundingBox" height="339.2%" id="filter-23" width="227.3%" x="-64.0%" y="-109.0%">		<feGaussianBlur stdDeviation="20"></feGaussianBlur>			</filter><filter filterUnits="objectBoundingBox" height="172.3%" id="filter-21" width="124.2%" x="-12.1%" y="-30.9%">			<feGaussianBlur stdDeviation="10"></feGaussianBlur>				</filter><filter filterUnits="objectBoundingBox" height="201.0%" id="filter-19" width="158.5%" x="-29.3%" y="-40.4%">			<feGaussianBlur stdDeviation="5"></feGaussianBlur>			</filter><filter filterUnits="objectBoundingBox" height="201.0%" id="filter-17" width="164.4%" x="-32.2%" y="-40.4%">			<feGaussianBlur stdDeviation="5"></feGaussianBlur>			</filter><filter filterUnits="objectBoundingBox" height="201.0%" id="filter-15" width="164.4%" x="-32.2%" y="-40.4%">			<feGaussianBlur stdDeviation="5"></feGaussianBlur>			</filter><filter filterUnits="objectBoundingBox" height="201.0%" id="filter-13" width="158.5%" x="-29.3%" y="-40.4%">			<feGaussianBlur stdDeviation="5"></feGaussianBlur>			</filter><filter filterUnits="objectBoundingBox" height="201.0%" id="filter-11" width="158.5%" x="-29.3%" y="-40.4%">			<feGaussianBlur stdDeviation="5"></feGaussianBlur>			</filter><desc>Created with Sketch.</desc><g id="desktop">	<g id="blaze-landing-var5" transform="translate(-686.000000, -111.000000)">		<g id="Group-30" transform="translate(694.000000, 105.000000)">			<g id="Group-32" transform="translate(472.000000, 27.000000)">									<g id="Group-29" transform="translate(92.258819, 465.917423) rotate(15.000000) translate(-92.258819, -465.917423) translate(17.258819, 390.417423)">											<linearGradient id="Path_00000150074525773410191150000006087696477964054953_" gradientUnits="userSpaceOnUse" x1="-778.3585" y1="1118.0103" x2="-778.928" y2="1117.5631" gradientTransform="matrix(132.5148 -31.5754 -35.5072 -117.8409 143064.9062 107198.1719)">						<stop offset="0" style="stop-color:#F12C4C"></stop>						<stop offset="1" style="stop-color:#F22C4C;stop-opacity:0"></stop>					</linearGradient>											<path id="Path" style="opacity:0.319;fill:none;stroke:url(#Path_00000150074525773410191150000006087696477964054953_);stroke-width:2;stroke-linecap:square;enable-background:new    ;" d="      M103.8,123.6l-1.8-0.5c3.1-11.3,13.2-15.3,23.8-19.5c11-4.4,22.3-8.9,27.5-21.9c10.3-25.7,20.6-37.9,54.4-42.7      c6-0.8,11.6-3.4,16-7.4c3.8-3.6,6.9-7.9,8.9-12.7c2.5-5.5,4-11.4,4.7-17.4l1.8,0.1c-0.7,6.2-2.3,12.3-4.8,18      c-2.2,5-5.4,9.6-9.4,13.3c-4.7,4.3-10.7,7.1-17,7.9c-16.2,2.3-26.9,6.2-34.8,12.8c-7.1,5.9-12.4,14.3-18.2,28.7      c-2.5,6.1-6.7,11.3-12.2,15c-5,3.4-10.8,5.7-16.3,7.9C116.3,109.4,106.7,113.2,103.8,123.6z"></path>					<circle id="Oval" class="st1" cx="238.2" cy="-0.3" r="5"></circle>											<g id="Group-34" transform="translate(88.349227, 21.047381) scale(-1, 1) rotate(-48.000000) translate(-88.349227, -21.047381) translate(73.349227, 6.547381)">					</g>					<circle id="Oval_00000130611125617509832260000009089619990525967002_" class="st2" cx="196.7" cy="-10.8" r="12.4"></circle>					<circle id="Oval_00000166636390070908477450000009560121439546691985_" class="st3" cx="248" cy="33.8" r="2.2"></circle>				</g>				<circle id="Oval_00000030465776392143789750000008370485135700752784_" class="st2" cx="263.2" cy="14.4" r="12.4"></circle>			</g>			<g id="Group-18">				<g id="Page-1-_x28_5_x29_" transform="translate(459.000000, 544.000000)">					<g id="Group-7">					</g>				</g>				<circle id="Oval_00000155127840153578555390000014155702827606810046_" class="st2" cx="227" cy="18.4" r="12.4"></circle>				<circle id="Oval_00000088855012187275967440000018136388486328976799_" class="st1" cx="167.8" cy="96.9" r="2.2"></circle>				<g id="Rectangle">					<g class="st4">						<path id="path-3_00000019648302772705951060000018126022168997118353_" class="st5" d="M181.6,126h409c4.4,0,8,3.6,8,8v424       c0,4.4-3.6,8-8,8h-409c-4.4,0-8-3.6-8-8V134C173.6,129.6,177.2,126,181.6,126z"></path>					</g>					<g>													<linearGradient id="path-3_00000160163497395111869100000014691473952628000421_" gradientUnits="userSpaceOnUse" x1="-534.4147" y1="1281.5387" x2="-534.4147" y2="1280.1343" gradientTransform="matrix(425 0 0 -440 227512.3281 564003)">							<stop offset="0" style="stop-color:#343D4B"></stop>							<stop offset="1" style="stop-color:#111B26"></stop>						</linearGradient>													<path id="path-3_00000114794150066437660970000009466689670277255332_" style="fill-rule:evenodd;clip-rule:evenodd;fill:#0F1A24;stroke:url(#path-3_00000160163497395111869100000014691473952628000421_);stroke-width:3;" d="       M181.6,126h409c4.4,0,8,3.6,8,8v424c0,4.4-3.6,8-8,8h-409c-4.4,0-8-3.6-8-8V134C173.6,129.6,177.2,126,181.6,126z"></path>					</g>				</g>									<linearGradient id="Line_00000177454254897188784240000011668733364249421984_" gradientUnits="userSpaceOnUse" x1="-539.6069" y1="1276.7145" x2="-540.2384" y2="1276.3582" gradientTransform="matrix(-155 0 0 -107 -83490.4062 136681)">					<stop offset="0" style="stop-color:#F12C4C"></stop>					<stop offset="1" style="stop-color:#F22C4C;stop-opacity:0"></stop>				</linearGradient>									<path id="Line" style="opacity:0.319;fill:none;stroke:url(#Line_00000177454254897188784240000011668733364249421984_);stroke-width:4;stroke-linecap:square;enable-background:new    ;" d="     M286.6,150c-2-3.8-4.9-7-8.7-9.3c-8.1-5-31-6.7-43.6-18c-7.1-6.4-8.6-22.1-28-35.2c-20.9-14.2-36.5-2.7-57-15     c-8.7-5.2-15.4-23.4-17.8-29.5"></path>				<circle id="Oval_00000074417727201879360960000012827153982292043684_" class="st8" cx="131.4" cy="42.8" r="4.8"></circle>				<circle id="Oval_00000039094478076137430850000007923098164467995310_" class="st1" cx="154" cy="582.5" r="9"></circle>				<g id="Rectangle-Copy">					<g class="st9">						<path id="path-6_00000124854569809674410050000008731362276920273562_" class="st5" d="M253.6,55l409-0.9c4.4,0,8,3.6,8,8       c0,0,0,0,0,0v399c0,4.4-3.6,8-8,8l-409,0.9c-4.4,0-8-3.6-8-8c0,0,0,0,0,0V63C245.6,58.5,249.2,55,253.6,55z"></path>					</g>					<g>						<path id="path-6_00000069396177955626412040000013377622566648906416_" class="st10" d="M253.6,55l409-0.9c4.4,0,8,3.6,8,8       c0,0,0,0,0,0v399c0,4.4-3.6,8-8,8l-409,0.9c-4.4,0-8-3.6-8-8c0,0,0,0,0,0V63C245.6,58.5,249.2,55,253.6,55z"></path>					</g>				</g>				<g id="Group-28" transform="translate(90.123079, 167.682626)">					<g id="Group-16">						<path id="_x30_X" class="st11" d="M120.9,276.4c2.8,0,4.4-2,4.4-5.7s-1.6-5.7-4.4-5.7c-2.8,0-4.4,2-4.4,5.7       S118,276.4,120.9,276.4z M120.9,274.3c-1.1,0-1.6-1.1-1.6-3.6c0-2.6,0.5-3.6,1.6-3.6c1.1,0,1.6,1.1,1.6,3.6       C122.4,273.3,122,274.3,120.9,274.3z M129.3,276.3l2.3-3.5l2.4,3.5h3.5l-4-5.9l3.7-5.4h-3.5l-2.1,3.2l-2.1-3.2h-3.4l3.7,5.5       l-4,5.7H129.3z"></path>						<path id="_x31_0X" class="st12" d="M112.6,209.3v-11.2h-5.1v2.4h2.2v8.8H112.6z M120.9,209.4c2.8,0,4.4-2,4.4-5.7       s-1.6-5.7-4.4-5.7c-2.8,0-4.4,2-4.4,5.7S118,209.4,120.9,209.4z M120.9,207.3c-1.1,0-1.6-1.1-1.6-3.6c0-2.6,0.5-3.6,1.6-3.6       c1.1,0,1.6,1.1,1.6,3.6C122.4,206.3,122,207.3,120.9,207.3z M129.3,209.3l2.3-3.5l2.4,3.5h3.5l-4-5.9l3.7-5.4h-3.5l-2.1,3.2       l-2.1-3.2h-3.4l3.7,5.5l-4,5.7H129.3z"></path>						<path id="_x32_0X" class="st13" d="M115.3,142.3V140h-4.8l2.3-2.3c1.2-1.3,2.2-2.5,2.2-3.7c0-1.8-1.6-3-3.9-3       c-1.6,0-3.2,0.6-4.6,1.7l1.1,2.2c1-0.9,2.2-1.4,3.1-1.4c0.8,0,1.3,0.4,1.3,1c0,0.5-0.5,1.2-1.1,1.8l-4.1,4.2l0,1.9H115.3z        M120.9,142.4c2.8,0,4.4-2,4.4-5.7s-1.6-5.7-4.4-5.7c-2.8,0-4.4,2-4.4,5.7S118,142.4,120.9,142.4z M120.9,140.3       c-1.1,0-1.6-1.1-1.6-3.6c0-2.6,0.5-3.6,1.6-3.6c1.1,0,1.6,1.1,1.6,3.6C122.4,139.3,122,140.3,120.9,140.3z M129.3,142.3       l2.3-3.5l2.4,3.5h3.5l-4-5.9l3.7-5.4h-3.5l-2.1,3.2l-2.1-3.2h-3.4l3.7,5.5l-4,5.7H129.3z"></path>						<path id="_x33_0X" class="st14" d="M110.6,75.4c2.8,0,4.6-1.5,4.6-3.7c0-1.7-1.2-2.8-3-3.1l-0.6-0.1l3-2.8v-1.7h-7.8l0,2.3       h4.3l-2.6,2.5v1.6h1.9c1.2,0,1.9,0.5,1.9,1.4c0,0.9-0.7,1.4-1.9,1.4c-1.1,0-2.1-0.5-3-1.4l-1.2,2.3       C107.3,74.9,109,75.4,110.6,75.4z M120.9,75.4c2.8,0,4.4-2,4.4-5.7c0-3.7-1.6-5.7-4.4-5.7c-2.8,0-4.4,2-4.4,5.7       C116.5,73.4,118,75.4,120.9,75.4z M120.9,73.3c-1.1,0-1.6-1.1-1.6-3.6c0-2.6,0.5-3.6,1.6-3.6c1.1,0,1.6,1.1,1.6,3.6       C122.4,72.3,122,73.3,120.9,73.3z M129.3,75.3l2.3-3.5l2.4,3.5h3.5l-4-5.9l3.7-5.4h-3.5l-2.1,3.2l-2.1-3.2h-3.4l3.7,5.5       l-4,5.7H129.3z"></path>						<path id="_x34_0X" class="st15" d="M114.2,12V9.6h1.4V7.3h-1.4V5h-2.7l0,2.4h-2.1l3.1-6.6h-2.8l-3.3,6.8v2h5.1V12H114.2z        M120.9,12.1c2.8,0,4.4-2,4.4-5.7s-1.6-5.7-4.4-5.7c-2.8,0-4.4,2-4.4,5.7S118,12.1,120.9,12.1z M120.9,10       c-1.1,0-1.6-1.1-1.6-3.6c0-2.6,0.5-3.6,1.6-3.6c1.1,0,1.6,1.1,1.6,3.6C122.4,8.9,122,10,120.9,10z M129.3,12l2.3-3.5L134,12       h3.5l-4-5.9l3.7-5.4h-3.5L131.6,4l-2.1-3.2h-3.4l3.7,5.5l-4,5.7H129.3z"></path>						<line id="Path-3" class="st16" x1="179.6" y1="203.8" x2="556.6" y2="203.8"></line>													<line id="Path-3_00000170239508844336840010000015130409779132361406_" class="st16" x1="179.6" y1="137.8" x2="556.6" y2="137.8"></line>													<line id="Path-3_00000134215003483104851910000017270626160986167207_" class="st16" x1="179.6" y1="72.8" x2="556.6" y2="72.8"></line>													<line id="Path-3_00000078759091854693471480000009837519105563902623_" class="st16" x1="179.6" y1="6.5" x2="556.6" y2="6.5"></line>													<line id="Path-3_00000140725490449387358210000011000095271128850069_" class="st16" x1="179.6" y1="269.8" x2="556.6" y2="269.8"></line>					</g>				</g>				<path id="Rectangle-Copy-67" class="st17" d="M290.7,77.7L290.7,77.7c2.2,0,4,1.8,4,4l0,0c0,2.2-1.8,4-4,4l0,0c-2.2,0-4-1.8-4-4     l0,0C286.7,79.5,288.5,77.7,290.7,77.7z"></path>				<path id="Rectangle-Copy-82" class="st17" d="M273.7,77.7L273.7,77.7c2.2,0,4,1.8,4,4l0,0c0,2.2-1.8,4-4,4l0,0c-2.2,0-4-1.8-4-4     l0,0C269.7,79.5,271.5,77.7,273.7,77.7z"></path>				<path id="Rectangle-Copy-83" class="st17" d="M306.7,77.7L306.7,77.7c2.2,0,4,1.8,4,4l0,0c0,2.2-1.8,4-4,4l0,0c-2.2,0-4-1.8-4-4     l0,0C302.7,79.5,304.5,77.7,306.7,77.7z"></path>				<g id="Group-33" transform="translate(583.235699, 28.502261)">					<circle id="Oval_00000103970685420590893640000009648741802815361926_" class="st1" cx="111.9" cy="7.1" r="6.3"></circle>				</g>				<g id="Group-40" transform="translate(164.000000, 109.682626)">					<g id="Group-22">						<g id="Rectangle-Copy-13">							<g class="st18">								<path id="path-8_00000183948910204349726110000006063802379863805867_" class="st5" d="M109.6,0h47.8c2.2,0,4,1.8,4,4v31.6         c0,2.2-1.8,4-4,4h-47.8c-2.2,0-4-1.8-4-4V4C105.6,1.8,107.4,0,109.6,0z"></path>							</g>							<g>								<path id="path-8_00000017515645347816478420000017203735223617026703_" class="st19" d="M109.6,0h47.8c2.2,0,4,1.8,4,4v31.6         c0,2.2-1.8,4-4,4h-47.8c-2.2,0-4-1.8-4-4V4C105.6,1.8,107.4,0,109.6,0z"></path>							</g>						</g>						<path id="_x31_.71X" class="st20" d="M121.1,24v-8.4h-3.8v1.8h1.6V24H121.1z M125,24.1c0.6,0,1-0.4,1-1s-0.4-1-1-1       c-0.6,0-1,0.4-1,1S124.4,24.1,125,24.1z M130.5,24l3.2-6.9v-1.5H127v3h1.9v-1.2h2.4l-3.1,6.6H130.5z M138.8,24v-8.4H135v1.8       h1.6V24H138.8z M143.9,24l1.8-2.6l1.8,2.6h2.6l-3-4.4l2.8-4h-2.6l-1.6,2.4l-1.6-2.4h-2.6l2.8,4.1l-3,4.3H143.9z"></path>					</g>					<g id="Group-23" transform="translate(65.670683, 0.000000)" class="st21">						<g id="Rectangle-Copy-14">							<g class="st22">								<path id="path-10_00000104689422484513256450000003945676296585281929_" class="st5" d="M109.6,0H170c2.2,0,4,1.8,4,4v31.6         c0,2.2-1.8,4-4,4h-60.4c-2.2,0-4-1.8-4-4V4C105.6,1.8,107.4,0,109.6,0z"></path>							</g>							<g>								<path id="path-10_00000134232522095445256830000002897920312236181436_" class="st23" d="M109.6,0H170c2.2,0,4,1.8,4,4v31.6         c0,2.2-1.8,4-4,4h-60.4c-2.2,0-4-1.8-4-4V4C105.6,1.8,107.4,0,109.6,0z"></path>							</g>						</g>						<path id="_x32_1.42X" class="st15" d="M125.9,24v-1.8h-3.6l1.7-1.7c0.9-0.9,1.6-1.9,1.6-2.8c0-1.3-1.2-2.2-2.9-2.2       c-1.2,0-2.4,0.5-3.5,1.3l0.8,1.6c0.8-0.7,1.6-1.1,2.3-1.1c0.6,0,1,0.3,1,0.7c0,0.4-0.3,0.9-0.8,1.4l-3.1,3.1l0,1.5H125.9z        M131.3,24v-8.4h-3.8v1.8h1.6V24H131.3z M135.2,24.1c0.6,0,1-0.4,1-1s-0.4-1-1-1c-0.6,0-1,0.4-1,1S134.6,24.1,135.2,24.1z        M142.9,24v-1.8h1.1v-1.7h-1.1v-1.8h-2l0,1.8h-1.6l2.3-4.9h-2.1l-2.5,5.1v1.5h3.8V24H142.9z M151.1,24v-1.8h-3.6l1.7-1.7       c0.9-0.9,1.6-1.9,1.6-2.8c0-1.3-1.2-2.2-2.9-2.2c-1.2,0-2.4,0.5-3.5,1.3l0.8,1.6c0.8-0.7,1.6-1.1,2.3-1.1c0.6,0,1,0.3,1,0.7       c0,0.4-0.3,0.9-0.8,1.4l-3.1,3.1l0,1.5H151.1z M154.1,24l1.8-2.6l1.8,2.6h2.6l-3-4.4l2.8-4h-2.6l-1.6,2.4l-1.6-2.4h-2.6       l2.8,4.1l-3,4.3H154.1z"></path>					</g>					<g id="Group-20" transform="translate(293.269076, 0.000000)" class="st24">						<g id="Rectangle-Copy-17">							<g class="st25">								<path id="path-12_00000061467059515360326310000007249772567467054756_" class="st5" d="M109.6,0H170c2.2,0,4,1.8,4,4v31.6         c0,2.2-1.8,4-4,4h-60.4c-2.2,0-4-1.8-4-4V4C105.6,1.8,107.4,0,109.6,0z"></path>							</g>							<g>								<path id="path-12_00000147187245444821096060000001125873615699064991_" class="st26" d="M109.6,0H170c2.2,0,4,1.8,4,4v31.6         c0,2.2-1.8,4-4,4h-60.4c-2.2,0-4-1.8-4-4V4C105.6,1.8,107.4,0,109.6,0z"></path>							</g>						</g>						<path id="_x32_1.42X_00000134207366194269022700000002982074205205649085_" class="st15" d="M125.9,24v-1.8h-3.6l1.7-1.7       c0.9-0.9,1.6-1.9,1.6-2.8c0-1.3-1.2-2.2-2.9-2.2c-1.2,0-2.4,0.5-3.5,1.3l0.8,1.6c0.8-0.7,1.6-1.1,2.3-1.1c0.6,0,1,0.3,1,0.7       c0,0.4-0.3,0.9-0.8,1.4l-3.1,3.1l0,1.5H125.9z M131.3,24v-8.4h-3.8v1.8h1.6V24H131.3z M135.2,24.1c0.6,0,1-0.4,1-1s-0.4-1-1-1       c-0.6,0-1,0.4-1,1S134.6,24.1,135.2,24.1z M142.9,24v-1.8h1.1v-1.7h-1.1v-1.8h-2l0,1.8h-1.6l2.3-4.9h-2.1l-2.5,5.1v1.5h3.8V24       H142.9z M151.1,24v-1.8h-3.6l1.7-1.7c0.9-0.9,1.6-1.9,1.6-2.8c0-1.3-1.2-2.2-2.9-2.2c-1.2,0-2.4,0.5-3.5,1.3l0.8,1.6       c0.8-0.7,1.6-1.1,2.3-1.1c0.6,0,1,0.3,1,0.7c0,0.4-0.3,0.9-0.8,1.4l-3.1,3.1l0,1.5H151.1z M154.1,24l1.8-2.6l1.8,2.6h2.6       l-3-4.4l2.8-4h-2.6l-1.6,2.4l-1.6-2.4h-2.6l2.8,4.1l-3,4.3H154.1z"></path>					</g>					<g id="Group-24" transform="translate(143.036145, 0.000000)" class="st27">						<g id="Rectangle-Copy-15">							<g class="st28">								<path id="path-14_00000116948513446700814260000015674605167679845788_" class="st5" d="M109.6,0h54.1c2.2,0,4,1.8,4,4v31.6         c0,2.2-1.8,4-4,4h-54.1c-2.2,0-4-1.8-4-4V4C105.6,1.8,107.4,0,109.6,0z"></path>							</g>							<g>								<path id="path-14_00000069371049218329281200000004407675616267636101_" class="st19" d="M109.6,0h54.1c2.2,0,4,1.8,4,4         v31.6c0,2.2-1.8,4-4,4h-54.1c-2.2,0-4-1.8-4-4V4C105.6,1.8,107.4,0,109.6,0z"></path>							</g>						</g>						<path id="_x35_.42X" class="st20" d="M122.7,24.1c2.1,0,3.4-1.2,3.4-2.9c0-1.5-1.3-2.5-3.3-2.5c-0.2,0-0.6,0-0.8,0v-1.3h3.6       v-1.8h-5.7v4.8c0.5,0,1.9,0,2.4,0c0.8,0,1.3,0.4,1.3,1c0,0.7-0.5,1.1-1.3,1.1c-0.8,0-1.5-0.4-2.2-1.1l-0.9,1.7       C120.3,23.7,121.6,24.1,122.7,24.1z M128,24.1c0.6,0,1-0.4,1-1s-0.4-1-1-1c-0.6,0-1,0.4-1,1S127.4,24.1,128,24.1z M135.7,24       v-1.8h1.1v-1.7h-1.1v-1.8h-2l0,1.8h-1.6l2.3-4.9h-2.1l-2.5,5.1v1.5h3.8V24H135.7z M143.9,24v-1.8h-3.6l1.7-1.7       c0.9-0.9,1.6-1.9,1.6-2.8c0-1.3-1.2-2.2-2.9-2.2c-1.2,0-2.4,0.5-3.5,1.3l0.8,1.6c0.8-0.7,1.6-1.1,2.3-1.1c0.6,0,1,0.3,1,0.7       c0,0.4-0.3,0.9-0.8,1.4l-3.1,3.1l0,1.5H143.9z M146.9,24l1.8-2.6l1.8,2.6h2.6l-3-4.4l2.8-4h-2.6l-1.6,2.4l-1.6-2.4h-2.6       l2.8,4.1l-3,4.3H146.9z"></path>					</g>					<g id="Group-19" transform="translate(369.734940, 0.000000)">						<g id="Rectangle-Copy-18">							<g class="st29">								<path id="path-16_00000106847354821254309550000000531133721764127149_" class="st5" d="M109.6,0h54.1c2.2,0,4,1.8,4,4v31.6         c0,2.2-1.8,4-4,4h-54.1c-2.2,0-4-1.8-4-4V4C105.6,1.8,107.4,0,109.6,0z"></path>							</g>							<g>								<path id="path-16_00000111180831835962181580000001864065222449514379_" class="st30" d="M109.6,0h54.1c2.2,0,4,1.8,4,4         v31.6c0,2.2-1.8,4-4,4h-54.1c-2.2,0-4-1.8-4-4V4C105.6,1.8,107.4,0,109.6,0z"></path>							</g>						</g>						<path id="_x35_.42X_00000005985763982338216160000003523587577682920888_" class="st20" d="M123.7,24.1c2.1,0,3.4-1.2,3.4-2.9       c0-1.5-1.3-2.5-3.3-2.5c-0.2,0-0.6,0-0.8,0v-1.3h3.6v-1.8h-5.7v4.8c0.5,0,1.9,0,2.4,0c0.8,0,1.3,0.4,1.3,1       c0,0.7-0.5,1.1-1.3,1.1c-0.8,0-1.5-0.4-2.2-1.1l-0.9,1.7C121.3,23.7,122.6,24.1,123.7,24.1z M129,24.1c0.6,0,1-0.4,1-1       s-0.4-1-1-1s-1,0.4-1,1S128.4,24.1,129,24.1z M136.7,24v-1.8h1.1v-1.7h-1.1v-1.8h-2l0,1.8h-1.6l2.3-4.9h-2.1l-2.5,5.1v1.5h3.8       V24H136.7z M144.9,24v-1.8h-3.6l1.7-1.7c0.9-0.9,1.6-1.9,1.6-2.8c0-1.3-1.2-2.2-2.9-2.2c-1.2,0-2.4,0.5-3.5,1.3l0.8,1.6       c0.8-0.7,1.6-1.1,2.3-1.1c0.6,0,1,0.3,1,0.7c0,0.4-0.3,0.9-0.8,1.4l-3.1,3.1l0,1.5H144.9z M147.9,24l1.8-2.6l1.8,2.6h2.6       l-3-4.4l2.8-4h-2.6l-1.6,2.4l-1.6-2.4h-2.6l2.8,4.1l-3,4.3H147.9z"></path>					</g>					<g id="Group-21" transform="translate(215.004016, 0.000000)" class="st31">						<g id="Rectangle-Copy-16">							<g class="st32">								<path id="path-18_00000145030107596839607580000003892086590289926027_" class="st5" d="M109.6,0H170c2.2,0,4,1.8,4,4v31.6         c0,2.2-1.8,4-4,4h-60.4c-2.2,0-4-1.8-4-4V4C105.6,1.8,107.4,0,109.6,0z"></path>							</g>							<g>								<path id="path-18_00000139987070450795888550000014920789101179723431_" class="st19" d="M109.6,0H170c2.2,0,4,1.8,4,4v31.6         c0,2.2-1.8,4-4,4h-60.4c-2.2,0-4-1.8-4-4V4C105.6,1.8,107.4,0,109.6,0z"></path>							</g>						</g>						<path id="_x31_6.43X" class="st20" d="M123.9,24v-8.4h-3.8v1.8h1.6V24H123.9z M130.4,24.1c1.8,0,3.1-1.1,3.1-2.9       c0-1.6-1.1-2.7-2.7-2.7c-0.9,0-1.6,0.3-2,0.9c0-1.4,0.6-2.2,1.9-2.2c0.6,0,1.3,0.2,1.7,0.5l0.8-1.5c-0.7-0.4-1.7-0.7-2.7-0.7       c-2.3,0-3.8,1.7-3.8,4.4C126.8,22.5,128.2,24.1,130.4,24.1z M130.3,22.4c-0.9,0-1.2-0.5-1.2-1.2c0-0.7,0.5-1.2,1.3-1.2       c0.7,0,1.2,0.4,1.2,1.1C131.5,21.9,131.1,22.4,130.3,22.4z M135.2,24.1c0.6,0,1-0.4,1-1s-0.4-1-1-1c-0.6,0-1,0.4-1,1       S134.6,24.1,135.2,24.1z M142.9,24v-1.8h1.1v-1.7h-1.1v-1.8h-2l0,1.8h-1.6l2.3-4.9h-2.1l-2.5,5.1v1.5h3.8V24H142.9z        M147.6,24.1c2.1,0,3.4-1.1,3.4-2.7c0-1.3-0.9-2.1-2.3-2.3l-0.4-0.1l2.3-2.1v-1.3h-5.9l0,1.7h3.2l-2,1.9v1.2h1.4       c0.9,0,1.5,0.3,1.5,1c0,0.7-0.5,1-1.4,1c-0.8,0-1.6-0.4-2.3-1l-0.9,1.7C145.1,23.7,146.3,24.1,147.6,24.1z M154.1,24l1.8-2.6       l1.8,2.6h2.6l-3-4.4l2.8-4h-2.6l-1.6,2.4l-1.6-2.4h-2.6l2.8,4.1l-3,4.3H154.1z"></path>					</g>				</g>				<g id="Group-17" transform="translate(0.000000, 502.682626)">					<g id="Group-35" transform="translate(140.000000, 0.317374)">						<g id="Group-25">							<g id="Group-36">								<g id="Group-39">									<g id="Rectangle-Copy-12">										<g class="st33">											<path id="path-20_00000176022841912863504260000006639348942225519783_" class="st5" d="M109.6,16h273c2.2,0,4,1.8,4,4            v86c0,2.2-1.8,4-4,4h-273c-2.2,0-4-1.8-4-4V20C105.6,17.8,107.4,16,109.6,16z"></path>										</g>										<g>											<path id="path-20_00000093150406261795529470000017714407741067927684_" class="st34" d="M109.6,16h273c2.2,0,4,1.8,4,4            v86c0,2.2-1.8,4-4,4h-273c-2.2,0-4-1.8-4-4V20C105.6,17.8,107.4,16,109.6,16z"></path>										</g>									</g>									<g id="Level-13" transform="translate(208.000000, 43.000000)">										<path id="Level12" class="st20" d="M111.1,9V7.3h-3.6V0.6h-1.9V9H111.1z M115,9.1c1.2,0,2.1-0.4,2.8-1.1l-1-1           c-0.4,0.4-1,0.7-1.6,0.7c-0.8,0-1.5-0.5-1.7-1.3h4.6c0.2-2.4-0.9-3.9-3.2-3.9c-2,0-3.3,1.3-3.3,3.3           C111.7,7.8,113,9.1,115,9.1z M116.4,5.2h-2.9c0.1-0.9,0.7-1.4,1.5-1.4C115.8,3.8,116.4,4.4,116.4,5.2z M122.8,9l2.4-6.5           h-1.8l-1.5,4.7l-1.5-4.7l-1.9,0l2.4,6.4H122.8z M128.9,9.1c1.2,0,2.1-0.4,2.8-1.1l-1-1c-0.4,0.4-1,0.7-1.6,0.7           c-0.8,0-1.5-0.5-1.7-1.3h4.6c0.2-2.4-0.9-3.9-3.2-3.9c-2,0-3.3,1.3-3.3,3.3C125.5,7.8,126.8,9.1,128.9,9.1z M130.3,5.2           h-2.9c0.1-0.9,0.7-1.4,1.5-1.4C129.7,3.8,130.2,4.4,130.3,5.2z M135.1,9V0.1h-1.8V9H135.1z M144.4,9V0.6h-3.6v1.6h1.7V9           H144.4z M154,9V7.4h-3.9l2-1.9c0.9-1,1.6-1.9,1.6-2.8c0-1.3-1.2-2.2-2.9-2.2c-1.2,0-2.3,0.5-3.4,1.2l0.7,1.4           c0.8-0.6,1.6-1.1,2.3-1.1c0.7,0,1.2,0.3,1.2,0.9c0,0.4-0.4,1-0.9,1.5l-3.1,3.2V9H154z"></path>									</g>									<g id="Group-37" transform="translate(24.000000, 41.000000)">										<g id="Group-26">											<g id="Group-38">												<path id="Path_00000121272605371570590370000003209274040623044489_" class="st35" d="M121.1,1.7c-0.1-0.1-0.3,0-0.4,0             l-3.5,2.8l-3.5-4.5C113.6,0,113.5,0,113.4,0s-0.2,0-0.3,0.1l-3.5,4.5l-3.5-2.8c-0.1-0.1-0.3-0.1-0.4,0             c-0.1,0.1-0.2,0.2-0.2,0.3l0.6,10.2c0,0.7,0.6,1.3,1.4,1.3h11.7c0.7,0,1.3-0.6,1.4-1.3L121.3,2             C121.3,1.9,121.2,1.8,121.1,1.7z"></path>												<polygon id="Path_00000179618370133536425460000003497538556451720125_" class="st36" points="120.3,10.8 120.4,9.9              106.5,9.9 106.6,10.8             "></polygon>											</g>											<path id="Gold" class="st37" d="M133.4,11.1c1.2,0,2.5-0.4,3.4-1.1V6.8h-1.6V9c-0.5,0.3-1.1,0.5-1.6,0.5            c-1.5,0-2.7-1.1-2.7-2.6c0-1.5,1.2-2.6,2.6-2.6c0.8,0,1.7,0.4,2.3,0.9l1.1-1.4c-0.9-0.7-2.1-1.2-3.4-1.2            c-2.6,0-4.6,1.8-4.6,4.3C128.9,9.2,130.8,11.1,133.4,11.1z M141.3,11.1c2.1,0,3.5-1.3,3.5-3.3c0-2-1.4-3.3-3.5-3.3            c-2.1,0-3.5,1.3-3.5,3.3C137.9,9.7,139.3,11.1,141.3,11.1z M141.3,9.6c-1,0-1.6-0.7-1.6-1.8s0.7-1.8,1.6-1.8            c0.9,0,1.6,0.7,1.6,1.8S142.3,9.6,141.3,9.6z M147.9,11V2.1h-1.8V11H147.9z M152.3,11.1c0.9,0,1.6-0.4,2-1V11h1.8V2.1            h-1.8v3.4c-0.5-0.7-1.2-1-2.1-1c-1.8,0-3,1.3-3,3.3C149.2,9.7,150.4,11.1,152.3,11.1z M152.7,9.6c-1,0-1.6-0.7-1.6-1.8            c0-1,0.7-1.8,1.6-1.8c0.9,0,1.6,0.7,1.6,1.8S153.6,9.6,152.7,9.6z"></path>										</g>									</g>									<path id="Rectangle_00000133500023496862475250000010791151839387060647_" class="st1" d="M138.6,68h215c5,0,9,4,9,9          s-4,9-9,9h-215c-5,0-9-4-9-9S133.6,68,138.6,68z"></path>									<path id="Rectangle_00000101816932763915267340000016015399367481385627_" class="st38" d="M138.6,71h101.5          c3.3,0,6,2.7,6,6s-2.7,6-6,6H138.6c-3.3,0-6-2.7-6-6S135.3,71,138.6,71z"></path>																			<g id="Combined-Shape" transform="translate(140.500000, 26.500000) rotate(-180.000000) translate(-140.500000, -26.500000) ">										<g class="st39">											<path id="path-22_00000019646251381664193100000007996103100551354543_" class="st5" d="M36.3-0.3            c0.1,0.1,0.2,0.2,0.3,0.3L43,8h37.1c2.2,0,4,1.8,4,4v37c0,2.2-1.8,4-4,4h-91c-2.2,0-4-1.8-4-4V12c0-2.2,1.8-4,4-4h38.1            l6.3-8C34.2-0.9,35.4-1,36.3-0.3z"></path>										</g>										<g>											<path id="path-22_00000140694885192441513550000012435840666383276934_" class="st10" d="M36.3-0.3            c0.1,0.1,0.2,0.2,0.3,0.3L43,8h37.1c2.2,0,4,1.8,4,4v37c0,2.2-1.8,4-4,4h-91c-2.2,0-4-1.8-4-4V12c0-2.2,1.8-4,4-4h38.1            l6.3-8C34.2-0.9,35.4-1,36.3-0.3z"></path>										</g>									</g>									<path id="_x35_0.00_x25_" class="st20" d="M221.4,28.1c2.8,0,4.6-1.5,4.6-3.9c0-2-1.7-3.4-4.4-3.4c-0.2,0-0.8,0-1,0v-1.7          h4.8v-2.4h-7.5v6.4c0.7,0,2.5-0.1,3.1-0.1c1.1,0,1.8,0.5,1.8,1.3c0,0.9-0.6,1.4-1.8,1.4c-1,0-2-0.5-2.9-1.4l-1.2,2.3          C218.2,27.6,219.9,28.1,221.4,28.1z M231.5,28.1c2.8,0,4.4-2,4.4-5.7s-1.6-5.7-4.4-5.7c-2.8,0-4.4,2-4.4,5.7          S228.6,28.1,231.5,28.1z M231.5,26c-1.1,0-1.6-1.1-1.6-3.6c0-2.6,0.5-3.6,1.6-3.6c1.1,0,1.6,1.1,1.6,3.6          C233.1,24.9,232.6,26,231.5,26z M238.4,28.1c0.8,0,1.4-0.6,1.4-1.4s-0.6-1.4-1.4-1.4c-0.8,0-1.4,0.6-1.4,1.4          S237.6,28.1,238.4,28.1z M245.3,28.1c2.8,0,4.4-2,4.4-5.7s-1.6-5.7-4.4-5.7c-2.8,0-4.4,2-4.4,5.7S242.4,28.1,245.3,28.1z           M245.3,26c-1.1,0-1.6-1.1-1.6-3.6c0-2.6,0.5-3.6,1.6-3.6c1.1,0,1.6,1.1,1.6,3.6C246.9,24.9,246.4,26,245.3,26z           M255.1,28.1c2.8,0,4.4-2,4.4-5.7s-1.6-5.7-4.4-5.7c-2.8,0-4.4,2-4.4,5.7S252.3,28.1,255.1,28.1z M255.1,26          c-1.1,0-1.6-1.1-1.6-3.6c0-2.6,0.5-3.6,1.6-3.6c1.1,0,1.6,1.1,1.6,3.6C256.7,24.9,256.3,26,255.1,26z M263.7,23.5          c1.9,0,3.1-1.3,3.1-3.4c0-2.1-1.2-3.4-3.1-3.4c-1.9,0-3.1,1.3-3.1,3.4C260.6,22.2,261.8,23.5,263.7,23.5z M265.6,28l8-11.2          h-2.7l-8,11.2H265.6z M263.7,22c-0.8,0-1.3-0.7-1.3-1.9s0.5-1.8,1.3-1.8s1.3,0.7,1.3,1.8S264.5,22,263.7,22z M272.9,28.1          c1.9,0,3.1-1.3,3.1-3.4c0-2.1-1.2-3.4-3.1-3.4c-1.9,0-3.1,1.3-3.1,3.4C269.8,26.8,271,28.1,272.9,28.1z M272.9,26.5          c-0.8,0-1.3-0.7-1.3-1.9s0.5-1.8,1.3-1.8s1.3,0.7,1.3,1.8S273.7,26.5,272.9,26.5z"></path>								</g>								<g id="Group-27" transform="translate(26.000000, 0.000000)">								</g>							</g>						</g>					</g>					<g id="Oval-Copy-3" transform="translate(22.589891, 42.907264) rotate(350.000000) translate(-22.589891, -42.907264) ">						<g class="st40">							<circle id="path-24_00000058585107210405972150000013445151576781861804_" class="st5" cx="126.6" cy="61.2" r="19.5"></circle>						</g>						<g>							<circle id="path-24_00000018237171699834368720000004750096760261117062_" class="st41" cx="126.6" cy="61.2" r="19.5"></circle>						</g>					</g>				</g>									<linearGradient id="Line_00000124136682599742202670000000035893641823770799_" gradientUnits="userSpaceOnUse" x1="-533.6459" y1="1280.6786" x2="-534.3621" y2="1280.1713" gradientTransform="matrix(348 0 0 -298 186296.0312 381934)">					<stop offset="0" style="stop-color:#0F1923"></stop>					<stop offset="1" style="stop-color:#0F1923;stop-opacity:0"></stop>				</linearGradient>									<path id="Line_00000155148667441809731990000012385101262069021320_" style="fill:none;stroke:url(#Line_00000124136682599742202670000000035893641823770799_);stroke-width:6;stroke-linecap:square;" d="     M260.6,541c3.8-9.8,10.1-18,18.8-24.7c18.4-14.1,73.3-24,100.8-54.6c15.6-17.3,15.2-55.6,58.8-92.2     c47.1-39.5,87.7-15.8,134.1-50.6c19.6-14.7,31.3-60.4,35.5-75.8"></path>									<linearGradient id="Line_00000164494114383974153940000017403324972732380079_" gradientUnits="userSpaceOnUse" x1="-533.8346" y1="1280.2502" x2="-534.4662" y2="1279.8947" gradientTransform="matrix(377 0 0 -260 201826.8281 333170)">					<stop offset="0" style="stop-color:#F12C4C"></stop>					<stop offset="1" style="stop-color:#F22C4C;stop-opacity:0"></stop>				</linearGradient>									<path id="Line_00000028318266856845196010000015712724174986925998_" style="fill:none;stroke:url(#Line_00000164494114383974153940000017403324972732380079_);stroke-width:4;stroke-linecap:square;" d="     M235.6,493c4.8-9.4,11.9-16.9,21.3-22.6c19.7-12.1,75.3-16.2,105.9-43.8c17.3-15.6,20.9-53.7,68-85.6     c50.9-34.4,88.8-6.5,138.6-36.3c21-12.6,37.5-56.8,43.2-71.7"></path>									<g id="Group-19-Copy-2" transform="translate(493.215202, 260.089299) rotate(-163.000000) translate(-493.215202, -260.089299) translate(471.215202, 214.089299)" class="st44">					<g id="Group-3" transform="translate(0.600822, 0.105625)">													<linearGradient id="Rectangle_00000011729362800873730060000002028202106441708211_" gradientUnits="userSpaceOnUse" x1="723.2125" y1="-1243.2625" x2="723.2125" y2="-1242.2625" gradientTransform="matrix(-40.1063 26.5739 12.2617 86.9192 44170.4727 88875.75)">							<stop offset="0" style="stop-color:#F12C4C;stop-opacity:0"></stop>							<stop offset="1" style="stop-color:#F12C4C"></stop>						</linearGradient>													<path id="Rectangle_00000010271658216839690870000004779586699295510972_" style="fill-rule:evenodd;clip-rule:evenodd;fill:url(#Rectangle_00000011729362800873730060000002028202106441708211_);" d="       M-80.6,30.9l22.1,12.6c-6.1,13-9.5,25.3-10.1,37s-0.9,25.4-0.9,41.2l-14.7-15.3l-16.2,14.5c2.2-16.4,4.3-32,6.4-46.8       S-87.5,44.9-80.6,30.9z"></path>					</g>				</g>				<g id="Rectangle_00000171720755585797969110000004896551370045655218_">					<g class="st46">						<path id="path-30_00000149378214338109197070000011803715897560302227_" class="st5" d="M367.6,209h155c2.2,0,4,1.8,4,4v56       c0,2.2-1.8,4-4,4h-155c-2.2,0-4-1.8-4-4v-56C363.6,210.8,365.4,209,367.6,209z"></path>					</g>					<g>													<linearGradient id="path-30_00000065775895587147404910000012276371688000636291_" gradientUnits="userSpaceOnUse" x1="-532.3832" y1="1272.4773" x2="-531.2604" y2="1272.4032" gradientTransform="matrix(163 0 0 -64 87163.8438 81678)">							<stop offset="0" style="stop-color:#10D182"></stop>							<stop offset="1" style="stop-color:#19A469"></stop>						</linearGradient>													<path id="path-30_00000036963571328269227410000008526117589544579750_" style="fill-rule:evenodd;clip-rule:evenodd;fill:url(#path-30_00000065775895587147404910000012276371688000636291_);" d="       M367.6,209h155c2.2,0,4,1.8,4,4v56c0,2.2-1.8,4-4,4h-155c-2.2,0-4-1.8-4-4v-56C363.6,210.8,365.4,209,367.6,209z"></path>					</g>				</g>				<path id="_x33_5.22X" class="st20" d="M404.8,251.2c4.9,0,8-2.6,8-6.4c0-3-2.2-4.9-5.3-5.4l-1-0.1l5.3-4.9v-3h-13.7l0,3.9h7.6     l-4.6,4.4v2.7h3.3c2.2,0,3.4,0.8,3.4,2.4c0,1.5-1.2,2.4-3.4,2.4c-1.9,0-3.7-0.8-5.3-2.4l-2.1,3.9     C399,250.3,401.9,251.2,404.8,251.2z M422.3,251.2c4.8,0,8-2.7,8-6.8c0-3.5-3-5.9-7.6-5.9c-0.4,0-1.3,0-1.8,0v-3h8.5v-4.1h-13.2     v11.2c1.2-0.1,4.5-0.1,5.5-0.1c2,0,3.1,0.8,3.1,2.3c0,1.6-1.1,2.5-3.1,2.5c-1.8,0-3.6-0.8-5.1-2.5l-2,4     C416.7,250.2,419.7,251.2,422.3,251.2z M434.7,251.2c1.4,0,2.4-1,2.4-2.4c0-1.4-1-2.4-2.4-2.4s-2.4,1-2.4,2.4     C432.4,250.2,433.3,251.2,434.7,251.2z M454.4,251v-4.1H446l4-4c2.2-2.2,3.8-4.4,3.8-6.6c0-3.1-2.9-5.2-6.9-5.2     c-2.9,0-5.6,1.1-8.1,3l1.9,3.8c1.8-1.5,3.8-2.5,5.4-2.5c1.4,0,2.2,0.6,2.2,1.7c0,0.8-0.8,2.1-1.9,3.2l-7.1,7.3l0,3.4H454.4z      M471.7,251v-4.1h-8.4l4-4c2.2-2.2,3.8-4.4,3.8-6.6c0-3.1-2.9-5.2-6.9-5.2c-2.9,0-5.6,1.1-8.1,3l1.9,3.8     c1.8-1.5,3.8-2.5,5.4-2.5c1.4,0,2.2,0.6,2.2,1.7c0,0.8-0.8,2.1-1.9,3.2l-7.1,7.3l0,3.4H471.7z M478.8,251l4.1-6.1l4.2,6.1h6.1     l-7-10.2l6.5-9.4h-6l-3.7,5.6l-3.7-5.6h-6l6.5,9.6l-7,10H478.8z"></path>									<linearGradient id="Oval_00000114762950369822209560000017192916907256081069_" gradientUnits="userSpaceOnUse" x1="-456.1737" y1="1218.629" x2="-448.8723" y2="1218.629" gradientTransform="matrix(6.4273 -0.7414 -1.2763 -11.0649 5056.0928 13365.5938)">					<stop offset="0" style="stop-color:#0B032D"></stop>					<stop offset="1" style="stop-color:#1B2835;stop-opacity:0"></stop>				</linearGradient>									<path id="Oval_00000080890987035082849460000012298077356807218104_" style="fill:url(#Oval_00000114762950369822209560000017192916907256081069_);" d="     M608.1,209.6c1.8-0.2,3.5,2.1,3.9,5.2c0.4,3.1-0.8,5.7-2.6,5.9c-1.8,0.2-3.5-2.1-3.9-5.2C605.2,212.4,606.3,209.8,608.1,209.6z"></path>									<linearGradient id="Oval_00000112634161855515874990000016194341168634754439_" gradientUnits="userSpaceOnUse" x1="-696.9861" y1="1113.4449" x2="-714.7592" y2="1113.4449" gradientTransform="matrix(0.622 -2.6068 -4.4069 -1.0515 5973.9233 -475.2785)">					<stop offset="0" style="stop-color:#0B032D"></stop>					<stop offset="1" style="stop-color:#1B2835;stop-opacity:0"></stop>				</linearGradient>									<path id="Oval_00000041983526878903622780000005893246473864923021_" style="fill:url(#Oval_00000112634161855515874990000016194341168634754439_);" d="     M620.5,215.7c0.2-0.7,1.3-1.1,2.5-0.8s2.1,1.1,1.9,1.8c-0.2,0.7-1.3,1.1-2.5,0.8S620.4,216.4,620.5,215.7z"></path>									<g id="Group-19-Copy-2_00000122695429911737763340000008952974651990017706_" transform="translate(509.500000, 224.000000) rotate(199.000000) translate(-509.500000, -224.000000) translate(493.000000, 203.000000)">					<g id="Group-3_00000032641893529968294770000018083520042342228613_" transform="translate(0.600822, 0.105625)">						<polygon id="Clip-2" class="st50" points="-99.8,34.4 -68.6,34.4 -68.6,75.3 -99.8,75.3       "></polygon>						<path id="Fill-1" class="st51" d="M-73.5,62.5l-8,7.9c-0.8,0.8-2,1.2-3.1,1.1c-0.8-0.1-1.6-0.4-2.3-1.1l-8-7.9       c-0.7-0.7-1.1-1.7-1.1-2.6c0-1,0.4-1.9,1.1-2.6l8-7.9c0.8-0.8,1.9-1.2,3-1.1c0.9,0.1,1.7,0.4,2.4,1.1l8,7.9       c0.7,0.7,1.1,1.7,1.1,2.6C-72.4,60.8-72.8,61.8-73.5,62.5 M-69.1,57.1L-69.1,57.1l0-0.1c0-0.1-0.1-0.2-0.1-0.2l-4.9-12.9       L-77,48l-7.2-13.6c0,0-11.4,16.7-14.3,21l0,0c-2.1,3.1-1.8,7.4,1,10.2l7.5,7.4c3.2,3.1,8.4,3.1,11.5,0l7.5-7.4       C-68.6,63.2-68,59.9-69.1,57.1"></path>					</g>					<path id="Fill-4" class="st51" d="M-83.5,51.9c-1.2,0-2.2,1-2.2,2.2s1,2.2,2.2,2.2c1.2,0,2.2-1,2.2-2.2S-82.2,51.9-83.5,51.9"></path>					<path id="Fill-6" class="st51" d="M-83.5,63.2c-1.2,0-2.2,1-2.2,2.2c0,1.2,1,2.3,2.2,2.3c1.2,0,2.2-1,2.2-2.2      C-81.3,64.2-82.3,63.2-83.5,63.2"></path>					<path id="Fill-8" class="st51" d="M-78.5,57.8c-1.2,0-2.2,1-2.2,2.2c0,1.2,1,2.2,2.2,2.2c1.2,0,2.2-1,2.2-2.2      C-76.2,58.8-77.2,57.8-78.5,57.8"></path>					<path id="Fill-10" class="st51" d="M-92,60c0,1.2,1,2.2,2.2,2.2c1.2,0,2.2-1,2.2-2.2c0-1.2-1-2.2-2.2-2.2      C-91,57.7-92,58.7-92,60z"></path>				</g>				<g id="Group-12" transform="translate(459.000000, 544.000000)">					<g id="layer-copy">						<path id="Path_00000168094019623186222030000002810698998060373128_" class="st52" d="M107.6,5v32c0,1.7,1.3,3,3,3h32       c1.7,0,3-1.3,3-3V5c0-1.7-1.3-3-3-3h-32C108.9,2,107.6,3.3,107.6,5z"></path>						<path id="Path_00000131341298554984262820000012127121286334190757_" class="st53" d="M105.6,5c0-2.8,2.2-5,5-5h32       c2.8,0,5,2.2,5,5v32c0,2.8-2.2,5-5,5h-32c-2.8,0-5-2.2-5-5V5z"></path>					</g>					<path id="layer-copy-7" class="st54" d="M154.6,5c0-2.2,1.8-4,4-4h32c2.2,0,4,1.8,4,4v32c0,2.2-1.8,4-4,4h-32c-2.2,0-4-1.8-4-4      V5z"></path>					<path id="layer-copy-8" class="st54" d="M202.6,5c0-2.2,1.8-4,4-4h32c2.2,0,4,1.8,4,4v32c0,2.2-1.8,4-4,4h-32c-2.2,0-4-1.8-4-4      V5z"></path>					<g id="x2" transform="translate(13.000000, 16.000000)">						<g id="X2">							<g>								<path id="path-34" d="M107.9,9l1.9-2.8l2,2.8h2.3l-3-4.4l2.8-4h-2.2l-1.8,2.6l-1.8-2.6h-2.2l2.8,4.1l-3,4.3H107.9z M121.1,9         V7.4h-3.9l2-1.9c0.9-1,1.6-1.9,1.6-2.8c0-1.3-1.2-2.2-2.9-2.2c-1.2,0-2.3,0.5-3.4,1.2l0.7,1.4c0.8-0.6,1.6-1.1,2.3-1.1         c0.7,0,1.2,0.3,1.2,0.9c0,0.4-0.4,1-0.9,1.5l-3.1,3.2V9H121.1z"></path>							</g>							<g>								<path id="path-34_00000167398498136426181170000005766107908174177452_" class="st55" d="M107.9,9l1.9-2.8l2,2.8h2.3l-3-4.4         l2.8-4h-2.2l-1.8,2.6l-1.8-2.6h-2.2l2.8,4.1l-3,4.3H107.9z M121.1,9V7.4h-3.9l2-1.9c0.9-1,1.6-1.9,1.6-2.8         c0-1.3-1.2-2.2-2.9-2.2c-1.2,0-2.3,0.5-3.4,1.2l0.7,1.4c0.8-0.6,1.6-1.1,2.3-1.1c0.7,0,1.2,0.3,1.2,0.9c0,0.4-0.4,1-0.9,1.5         l-3.1,3.2V9H121.1z"></path>							</g>						</g>					</g>					<g id="x14" transform="translate(57.000000, 16.000000)">						<g id="X14">							<g>								<path id="path-35" d="M107.9,9l1.9-2.8l2,2.8h2.3l-3-4.4l2.8-4h-2.2l-1.8,2.6l-1.8-2.6h-2.2l2.8,4.1l-3,4.3H107.9z M119,9         V0.6h-3.6v1.6h1.7V9H119z M127.7,9V7.1h1.2V5.6h-1.1l0-1.9h-1.7v1.9h-2l2.5-5h-1.8L122,5.8v1.3h3.9V9H127.7z"></path>							</g>							<g>								<path id="path-35_00000158017491788378683710000007587702594914913688_" class="st55" d="M107.9,9l1.9-2.8l2,2.8h2.3l-3-4.4         l2.8-4h-2.2l-1.8,2.6l-1.8-2.6h-2.2l2.8,4.1l-3,4.3H107.9z M119,9V0.6h-3.6v1.6h1.7V9H119z M127.7,9V7.1h1.2V5.6h-1.1l0-1.9         h-1.7v1.9h-2l2.5-5h-1.8L122,5.8v1.3h3.9V9H127.7z"></path>							</g>						</g>					</g>					<g id="x2-copy-2" transform="translate(109.000000, 16.000000)">						<g id="X2_00000107567021941491452290000008774309677326112928_">							<g>								<path id="path-36" d="M107.9,9l1.9-2.8l2,2.8h2.3l-3-4.4l2.8-4h-2.2l-1.8,2.6l-1.8-2.6h-2.2l2.8,4.1l-3,4.3H107.9z M121.1,9         V7.4h-3.9l2-1.9c0.9-1,1.6-1.9,1.6-2.8c0-1.3-1.2-2.2-2.9-2.2c-1.2,0-2.3,0.5-3.4,1.2l0.7,1.4c0.8-0.6,1.6-1.1,2.3-1.1         c0.7,0,1.2,0.3,1.2,0.9c0,0.4-0.4,1-0.9,1.5l-3.1,3.2V9H121.1z"></path>							</g>							<g>								<path id="path-36_00000075875559045544720070000001466144136207628955_" class="st55" d="M107.9,9l1.9-2.8l2,2.8h2.3l-3-4.4         l2.8-4h-2.2l-1.8,2.6l-1.8-2.6h-2.2l2.8,4.1l-3,4.3H107.9z M121.1,9V7.4h-3.9l2-1.9c0.9-1,1.6-1.9,1.6-2.8         c0-1.3-1.2-2.2-2.9-2.2c-1.2,0-2.3,0.5-3.4,1.2l0.7,1.4c0.8-0.6,1.6-1.1,2.3-1.1c0.7,0,1.2,0.3,1.2,0.9c0,0.4-0.4,1-0.9,1.5         l-3.1,3.2V9H121.1z"></path>							</g>						</g>					</g>				</g>			</g>		</g>	</g></g><g>	<g>		<path class="st20" d="M482.4,439.8H378.8c-2.8,0-5-2.2-5-5V331.2c0-2.8,2.2-5,5-5h103.7c2.8,0,5,2.2,5,5v103.7   C487.4,437.6,485.2,439.8,482.4,439.8z"></path>		<g>			<g>				<path class="st56" d="M455.7,382.6l-7.3-19.7l-5.1,7.3l-12.5-23.9l-25.2,37.7c-2.8,4.7-3.9,12.2,1,17.1l14.9,14.9     c4.9,4.9,12.9,4.9,17.8,0l14.9-14.9C460.1,395.2,458,388.9,455.7,382.6z M435.2,410.2c-2.7,2.7-7,2.7-9.7,0l-14.1-14.1     c-2.7-2.7-2.7-7,0-9.7l14.1-14.1c2.7-2.7,7-2.7,9.7,0l14.1,14.1c2.7,2.7,2.7,7,0,9.7L435.2,410.2z M433.2,384.7     c-1.6,1.6-4.2,1.6-5.7,0c-1.6-1.6-1.6-4.2,0-5.7c1.6-1.6,4.2-1.6,5.7,0C434.8,380.5,434.8,383.1,433.2,384.7z M442.7,388.4     c-1.6-1.6-4.2-1.6-5.7,0c-1.6,1.6-1.6,4.2,0,5.7c1.6,1.6,4.2,1.6,5.7,0C444.2,392.5,444.2,390,442.7,388.4z M423.8,388.4     c-1.6-1.6-4.2-1.6-5.7,0c-1.6,1.6-1.6,4.2,0,5.7c1.6,1.6,4.2,1.6,5.7,0C425.4,392.5,425.4,390,423.8,388.4z M433.2,397.8     c-1.6-1.6-4.2-1.6-5.7,0c-1.6,1.6-1.6,4.2,0,5.7c1.6,1.6,4.2,1.6,5.7,0C434.8,402,434.8,399.4,433.2,397.8z"></path>			</g>		</g>		<path class="st57" d="M606.3,439.8H502.7c-2.8,0-5-2.2-5-5V331.2c0-2.8,2.2-5,5-5h103.7c2.8,0,5,2.2,5,5v103.7   C611.3,437.6,609.1,439.8,606.3,439.8z"></path>		<circle class="st58" cx="554.5" cy="383" r="27.1"></circle>		<g>			<path class="st20" d="M551.8,389.4h-3.5v-11.3l-3.5,1v-2.7l6.7-2.3h0.3V389.4z"></path>			<path class="st20" d="M563.2,389.4h-3.5v-11.3l-3.5,1v-2.7l6.7-2.3h0.3V389.4z"></path>		</g>		<path class="st59" d="M730.3,439.8H626.6c-2.8,0-5-2.2-5-5V331.2c0-2.8,2.2-5,5-5h103.7c2.8,0,5,2.2,5,5v103.7   C735.3,437.6,733,439.8,730.3,439.8z"></path>		<circle class="st58" cx="678.4" cy="383" r="27.1"></circle>		<g>			<path class="st20" d="M673.8,382l0.9-7.8h8.9v2.7h-6l-0.3,3c0.3-0.1,0.6-0.3,1-0.4c0.4-0.1,0.8-0.2,1.2-0.2    c1.5,0,2.7,0.4,3.5,1.3c0.8,0.9,1.2,2.2,1.2,3.8c0,1-0.2,1.9-0.7,2.7c-0.4,0.8-1,1.4-1.8,1.8s-1.7,0.6-2.8,0.6    c-1,0-1.9-0.2-2.7-0.6c-0.8-0.4-1.5-0.9-2-1.6c-0.5-0.7-0.7-1.5-0.7-2.3h3.5c0,0.6,0.2,1,0.5,1.3c0.3,0.3,0.7,0.5,1.3,0.5    c1.2,0,1.8-0.9,1.8-2.6c0-1.6-0.7-2.4-2.2-2.4c-0.8,0-1.4,0.3-1.8,0.8L673.8,382z"></path>		</g>		<path class="st57" d="M854.2,439.8H750.5c-2.8,0-5-2.2-5-5V331.2c0-2.8,2.2-5,5-5h103.7c2.8,0,5,2.2,5,5v103.7   C859.2,437.6,856.9,439.8,854.2,439.8z"></path>		<circle class="st58" cx="802.3" cy="383" r="27.1"></circle>		<g>			<path class="st20" d="M799.6,389.4h-3.5v-11.3l-3.5,1v-2.7l6.7-2.3h0.3V389.4z"></path>			<path class="st20" d="M813.7,383.2c0,2.1-0.5,3.6-1.4,4.8c-0.9,1.1-2.2,1.7-3.9,1.7c-1.7,0-3-0.6-3.9-1.7s-1.4-2.7-1.4-4.8v-2.8    c0-2.1,0.5-3.6,1.4-4.8c0.9-1.1,2.2-1.7,3.9-1.7c1.7,0,3,0.6,3.9,1.7c0.9,1.1,1.4,2.7,1.4,4.8V383.2z M810.2,380    c0-1.1-0.1-1.9-0.4-2.5c-0.3-0.5-0.7-0.8-1.4-0.8c-0.6,0-1,0.3-1.3,0.8c-0.3,0.5-0.4,1.3-0.4,2.3v3.9c0,1.1,0.1,2,0.4,2.5    c0.3,0.5,0.7,0.8,1.4,0.8c0.6,0,1-0.3,1.3-0.8c0.3-0.5,0.4-1.3,0.4-2.4V380z"></path>		</g>		<path class="st59" d="M358.5,439.8H254.8c-2.8,0-5-2.2-5-5V331.2c0-2.8,2.2-5,5-5h103.7c2.8,0,5,2.2,5,5v103.7   C363.5,437.6,361.3,439.8,358.5,439.8z"></path>		<circle class="st58" cx="306.7" cy="383" r="27.1"></circle>		<g>			<path class="st20" d="M311.2,383.5h1.5v2.7h-1.5v3.2h-3.5v-3.2h-5.9l-0.2-2.2l6.1-9.8v0h3.5V383.5z M304.9,383.5h2.7v-4.7    l-0.2,0.4L304.9,383.5z"></path>		</g>		<path class="st57" d="M234.6,439.8H130.9c-2.8,0-5-2.2-5-5V331.2c0-2.8,2.2-5,5-5h103.7c2.8,0,5,2.2,5,5v103.7   C239.6,437.6,237.4,439.8,234.6,439.8z"></path>		<circle class="st58" cx="182.8" cy="383" r="27.1"></circle>		<g>			<path class="st20" d="M180.1,389.4h-3.5v-11.3l-3.5,1v-2.7l6.7-2.3h0.3V389.4z"></path>			<path class="st20" d="M194.2,389.4h-10.6v-2.3l4.9-5.1c1.2-1.4,1.8-2.5,1.8-3.3c0-0.7-0.1-1.2-0.4-1.5s-0.7-0.5-1.2-0.5    c-0.5,0-1,0.2-1.3,0.7c-0.3,0.5-0.5,1-0.5,1.7h-3.5c0-0.9,0.2-1.8,0.7-2.6c0.5-0.8,1.1-1.4,1.9-1.9c0.8-0.4,1.8-0.7,2.8-0.7    c1.6,0,2.9,0.4,3.8,1.1c0.9,0.8,1.3,1.9,1.3,3.3c0,0.6-0.1,1.2-0.3,1.8c-0.2,0.6-0.6,1.2-1,1.8c-0.5,0.6-1.2,1.5-2.3,2.5l-2,2.3    h6V389.4z"></path>		</g>		<path class="st59" d="M110.7,439.8H7c-2.8,0-5-2.2-5-5V331.2c0-2.8,2.2-5,5-5h103.7c2.8,0,5,2.2,5,5v103.7   C115.7,437.6,113.5,439.8,110.7,439.8z"></path>		<circle class="st58" cx="58.9" cy="383" r="27.1"></circle>		<g>			<path class="st20" d="M57.3,380.3h1.7c1.3,0,2-0.6,2-1.9c0-0.5-0.2-0.9-0.5-1.2c-0.3-0.3-0.8-0.5-1.3-0.5c-0.5,0-0.9,0.1-1.2,0.4    c-0.3,0.3-0.5,0.6-0.5,1h-3.5c0-0.8,0.2-1.5,0.7-2.1c0.4-0.6,1.1-1.1,1.9-1.5c0.8-0.4,1.7-0.5,2.6-0.5c1.7,0,3,0.4,4,1.2    c1,0.8,1.5,1.8,1.5,3.2c0,0.7-0.2,1.3-0.6,1.9c-0.4,0.6-1,1.1-1.8,1.4c0.8,0.3,1.4,0.7,1.9,1.3c0.5,0.6,0.7,1.3,0.7,2.2    c0,1.4-0.5,2.4-1.6,3.3c-1,0.8-2.4,1.2-4.1,1.2c-1,0-1.9-0.2-2.8-0.6c-0.9-0.4-1.5-0.9-1.9-1.6c-0.4-0.7-0.7-1.4-0.7-2.3h3.5    c0,0.5,0.2,0.9,0.6,1.2c0.4,0.3,0.8,0.5,1.4,0.5c0.6,0,1.1-0.2,1.5-0.5c0.4-0.3,0.6-0.8,0.6-1.3c0-0.8-0.2-1.3-0.6-1.6    c-0.4-0.3-0.9-0.5-1.6-0.5h-1.7V380.3z"></path>		</g>	</g>	<rect x="427.8" y="282.1" class="st20" width="5.6" height="201.8"></rect></g></svg>